<svg xmlns="http://www.w3.org/2000/svg" width="53" height="53" fill="none"><path fill="#2775CA" d="M26.5 53A26.436 26.436 0 0 0 53 26.5 26.436 26.436 0 0 0 26.5 0 26.436 26.436 0 0 0 0 26.5 26.436 26.436 0 0 0 26.5 53z"/><path fill="#fff" d="M33.787 30.696c0-3.864-2.318-5.19-6.956-5.741-3.312-.442-3.975-1.325-3.975-2.871s1.104-2.54 3.313-2.54c1.987 0 3.091.663 3.643 2.319a.83.83 0 0 0 .773.552h1.767a.755.755 0 0 0 .773-.773v-.11a5.516 5.516 0 0 0-4.969-4.527v-2.65c0-.442-.331-.773-.883-.884h-1.656c-.442 0-.773.331-.884.884v2.54c-3.312.441-5.41 2.65-5.41 5.41 0 3.643 2.208 5.079 6.846 5.631 3.091.552 4.085 1.214 4.085 2.981s-1.546 2.981-3.644 2.981c-2.87 0-3.864-1.214-4.196-2.87-.11-.442-.441-.663-.772-.663h-1.878a.755.755 0 0 0-.772.773v.11c.441 2.76 2.208 4.748 5.852 5.3v2.65c0 .442.33.773.883.884h1.656c.442 0 .773-.332.884-.883v-2.65c3.312-.553 5.52-2.872 5.52-5.853z"/><path fill="#fff" d="M20.869 42.29c-8.613-3.092-13.03-12.698-9.828-21.2 1.657-4.638 5.3-8.171 9.828-9.828.441-.22.662-.552.662-1.104V8.612c0-.441-.22-.773-.662-.883-.111 0-.332 0-.442.11C9.937 11.152 4.195 22.304 7.508 32.794c1.987 6.183 6.735 10.931 12.919 12.919.442.22.883 0 .994-.442.11-.11.11-.221.11-.442v-1.546c0-.331-.331-.773-.662-.994zM32.573 7.84c-.442-.221-.884 0-.994.441-.11.11-.11.221-.11.442v1.546c0 .441.33.883.662 1.104 8.612 3.091 13.03 12.698 9.827 21.2-1.656 4.638-5.3 8.17-9.827 9.827-.442.22-.663.552-.663 1.104v1.546c0 .442.221.773.663.883.11 0 .331 0 .442-.11 10.49-3.313 16.231-14.465 12.919-24.954-1.988-6.294-6.846-11.042-12.92-13.03z"/></svg>