<?xml version="1.0" standalone="no"?>
<!DOCTYPE svg PUBLIC "-//W3C//DTD SVG 20010904//EN"
 "http://www.w3.org/TR/2001/REC-SVG-20010904/DTD/svg10.dtd">
<svg version="1.0" xmlns="http://www.w3.org/2000/svg"
 width="700.000000pt" height="700.000000pt" viewBox="0 0 700.000000 700.000000"
 preserveAspectRatio="xMidYMid meet">
<metadata>
Created by potrace 1.14, written by Peter Selinger 2001-2017
</metadata>
<g transform="translate(0.000000,700.000000) scale(0.100000,-0.100000)"
fill="#000000" stroke="none">
<path d="M1768 5269 c-951 -951 -1728 -1731 -1728 -1733 0 -3 779 -783 1730
-1735 l1730 -1730 1730 1730 c952 951 1730 1732 1730 1735 0 5 -3459 3464
-3463 3463 -1 0 -779 -779 -1729 -1730z m1349 834 c-8 -16 -388 -775 -844
-1688 -456 -913 -840 -1680 -852 -1704 l-23 -44 -434 434 -434 434 1297 1297
c714 714 1299 1298 1301 1298 1 0 -4 -12 -11 -27z m2921 -3000 c-238 -238
-436 -429 -440 -425 -7 7 -1693 3374 -1716 3427 -7 17 558 -540 1288 -1270
l1300 -1300 -432 -432z m-1583 1070 c421 -843 766 -1536 765 -1540 0 -9 -1527
-11 -1539 -3 -4 3 -7 699 -6 1547 0 848 3 1539 7 1535 4 -4 351 -697 773
-1539z m-1130 -3 c0 -847 -2 -1541 -5 -1541 -12 -3 -1526 -5 -1535 -2 -10 3
1523 3083 1535 3083 3 0 5 -693 5 -1540z m-10 -1899 c7 -1 10 -262 10 -766 l0
-765 -762 762 c-419 419 -760 764 -758 767 2 5 1474 7 1510 2z m1885 -1 c0 -7
-1513 -1520 -1520 -1520 -8 0 -6 1503 2 1515 6 10 1518 15 1518 5z"/>
</g>
</svg>
