<svg width="80" height="52" viewBox="0 0 80 52" fill="none" xmlns="http://www.w3.org/2000/svg">
<g style="mix-blend-mode:plus-darker" filter="url(#filter0_i_503_5356)">
<path d="M79.846 22.9276C79.3625 18.532 77.7548 14.3351 75.1778 10.7414C72.6009 7.14765 69.1417 4.27838 65.1336 2.41014C61.1255 0.541896 56.7037 -0.26232 52.2945 0.0750157C47.8852 0.412352 43.6372 1.87986 39.96 4.33609C39.5177 4.59403 39.174 4.992 38.9833 5.46711C38.7925 5.94222 38.7656 6.46735 38.9066 6.9595C39.0477 7.45166 39.3488 7.88275 39.7623 8.18463C40.1758 8.48652 40.6781 8.64198 41.1899 8.62644H43.4638C43.8852 8.6219 44.3025 8.71057 44.6857 8.88611C45.0689 9.06164 45.4086 9.3197 45.6804 9.64182C46.0322 10.0586 46.2575 10.5672 46.3297 11.1078C46.402 11.6483 46.3182 12.1983 46.0882 12.6928C45.8582 13.1873 45.4917 13.6057 45.0318 13.8988C44.5718 14.1919 44.0377 14.3474 43.4924 14.3469H33.0382C32.4694 14.3481 31.9139 14.5188 31.4427 14.8372C30.9714 15.1556 30.6058 15.6073 30.3925 16.1346C30.2191 16.5627 30.152 17.0265 30.1969 17.4863C30.2418 17.9461 30.3974 18.3881 30.6504 18.7746C30.9034 19.1611 31.2462 19.4806 31.6496 19.7058C32.053 19.9309 32.5049 20.055 32.9667 20.0674H49.7706C50.5292 20.0674 51.2567 20.3687 51.7931 20.9051C52.3295 21.4415 52.6308 22.169 52.6308 22.9276C52.6308 23.6862 52.3295 24.4137 51.7931 24.9501C51.2567 25.4865 50.5292 25.7879 49.7706 25.7879H31.508C31.1044 25.7854 30.7048 25.8684 30.3355 26.0314C29.9663 26.1944 29.6357 26.4337 29.3656 26.7336C29.0954 27.0335 28.8918 27.3871 28.7681 27.7713C28.6443 28.1555 28.6033 28.5615 28.6477 28.9627C28.7449 29.65 29.0886 30.2784 29.6148 30.731C30.1411 31.1836 30.8139 31.4293 31.508 31.4225H46.8817C47.346 31.4253 47.8027 31.5411 48.2122 31.7598C48.6218 31.9786 48.9719 32.2938 49.2324 32.6782C49.4928 33.0625 49.6558 33.5045 49.7072 33.966C49.7586 34.4274 49.6969 34.8945 49.5275 35.3267C49.3308 35.8799 48.9687 36.3592 48.4902 36.6995C48.0118 37.0397 47.4402 37.2246 46.8531 37.2288H36.4276C35.89 37.235 35.365 37.3926 34.9129 37.6835C34.4607 37.9745 34.0998 38.3869 33.8713 38.8736C33.6429 39.3603 33.5563 39.9016 33.6214 40.4353C33.6865 40.9689 33.9007 41.4735 34.2395 41.891C34.4995 42.2118 34.8258 42.4725 35.1961 42.6551C35.5664 42.8378 35.9719 42.9382 36.3847 42.9493H42.2052C42.4258 42.9529 42.6403 43.0218 42.8216 43.1473C43.003 43.2728 43.1431 43.4492 43.2242 43.6543C43.3053 43.8594 43.3238 44.0839 43.2774 44.2995C43.2309 44.5151 43.1216 44.7121 42.9632 44.8656C42.6493 45.1539 42.4102 45.5141 42.2663 45.9152C42.1224 46.3164 42.0781 46.7464 42.1372 47.1685C42.1963 47.5905 42.357 47.9919 42.6055 48.3381C42.854 48.6843 43.1829 48.965 43.5639 49.156C47.7026 51.0462 52.2683 51.8056 56.796 51.357C61.3238 50.9084 65.6517 49.2678 69.339 46.6022C73.0264 43.9366 75.9413 40.3414 77.787 36.1826C79.6326 32.0239 80.3431 27.4503 79.846 22.9276Z" fill="#F5F5F5"/>
<path d="M30.8069 51.0011C31.1438 50.9253 31.4541 50.7606 31.7057 50.5241C31.9572 50.2877 32.1407 49.988 32.2371 49.6565C32.3335 49.325 32.3392 48.9737 32.2537 48.6392C32.1682 48.3047 31.9945 47.9993 31.7508 47.7547C26.0246 41.8793 22.8199 33.9995 22.8199 25.7953C22.8199 17.591 26.0246 9.71124 31.7508 3.83581C31.9945 3.59125 32.1682 3.28582 32.2537 2.95133C32.3392 2.61685 32.3335 2.26554 32.2371 1.93402C32.1407 1.6025 31.9572 1.30289 31.7057 1.06641C31.4541 0.829921 31.1438 0.665216 30.8069 0.589446C27.5452 -0.0829911 24.1835 -0.112139 20.9105 0.503639C14.6243 1.70487 9.01104 5.20465 5.16546 10.3204C1.31989 15.4361 -0.482171 21.8008 0.110776 28.1732C0.703723 34.5456 3.64915 40.4687 8.37256 44.787C13.096 49.1054 19.2586 51.5094 25.6585 51.5302C27.3882 51.5294 29.1133 51.3521 30.8069 51.0011Z" fill="#F5F5F5"/>
</g>
<defs>
<filter id="filter0_i_503_5356" x="0" y="0" width="81" height="52.5303" filterUnits="userSpaceOnUse" color-interpolation-filters="sRGB">
<feFlood flood-opacity="0" result="BackgroundImageFix"/>
<feBlend mode="normal" in="SourceGraphic" in2="BackgroundImageFix" result="shape"/>
<feColorMatrix in="SourceAlpha" type="matrix" values="0 0 0 0 0 0 0 0 0 0 0 0 0 0 0 0 0 0 127 0" result="hardAlpha"/>
<feOffset dx="1" dy="1"/>
<feGaussianBlur stdDeviation="1.5"/>
<feComposite in2="hardAlpha" operator="arithmetic" k2="-1" k3="1"/>
<feColorMatrix type="matrix" values="0 0 0 0 0 0 0 0 0 0 0 0 0 0 0 0 0 0 0.05 0"/>
<feBlend mode="normal" in2="shape" result="effect1_innerShadow_503_5356"/>
</filter>
</defs>
</svg>
